<svg xmlns="http://www.w3.org/2000/svg" xmlns:xlink="http://www.w3.org/1999/xlink" version="1.1" width="256" height="256" viewBox="0 0 256 256" xml:space="preserve">

<defs>
</defs>
<g style="stroke: none; stroke-width: 0; stroke-dasharray: none; stroke-linecap: butt; stroke-linejoin: miter; stroke-miterlimit: 10; fill: none; fill-rule: nonzero; opacity: 1;" transform="translate(1.4065934065934016 1.4065934065934016) scale(2.81 2.81)" >
	<rect x="50.39" y="5.83" rx="0" ry="0" width="19.48" height="13.62" style="stroke: none; stroke-width: 1; stroke-dasharray: none; stroke-linecap: butt; stroke-linejoin: miter; stroke-miterlimit: 10; fill: rgb(0,0,0); fill-rule: nonzero; opacity: 1;" transform=" matrix(1 0 0 1 0 0) "/>
	<path d="M 26.447 30.5 L 26.447 30.5 c -4.194 0 -7.594 -3.4 -7.594 -7.594 v -2.409 c 0 -4.194 3.4 -7.594 7.594 -7.594 h 0 c 4.194 0 7.594 3.4 7.594 7.594 v 2.409 C 34.041 27.1 30.641 30.5 26.447 30.5 z" style="stroke: none; stroke-width: 1; stroke-dasharray: none; stroke-linecap: butt; stroke-linejoin: miter; stroke-miterlimit: 10; fill: rgb(0,0,0); fill-rule: nonzero; opacity: 1;" transform=" matrix(1 0 0 1 0 0) " stroke-linecap="round" />
	<path d="M 50.385 42.133 c -0.556 0 -1.006 -0.45 -1.006 -1.006 V 1.006 C 49.38 0.45 49.83 0 50.385 0 c 0.556 0 1.006 0.45 1.006 1.006 v 40.122 C 51.391 41.683 50.941 42.133 50.385 42.133 z" style="stroke: none; stroke-width: 1; stroke-dasharray: none; stroke-linecap: butt; stroke-linejoin: miter; stroke-miterlimit: 10; fill: rgb(0,0,0); fill-rule: nonzero; opacity: 1;" transform=" matrix(1 0 0 1 0 0) " stroke-linecap="round" />
	<path d="M 50.385 90 c -0.556 0 -1.006 -0.45 -1.006 -1.006 V 48.734 c 0 -0.556 0.45 -1.006 1.006 -1.006 c 0.556 0 1.006 0.45 1.006 1.006 v 40.261 C 51.391 89.55 50.941 90 50.385 90 z" style="stroke: none; stroke-width: 1; stroke-dasharray: none; stroke-linecap: butt; stroke-linejoin: miter; stroke-miterlimit: 10; fill: rgb(0,0,0); fill-rule: nonzero; opacity: 1;" transform=" matrix(1 0 0 1 0 0) " stroke-linecap="round" />
	<path d="M 84.941 12.862 H 71.879 v 7.589 c 0 0.555 -0.45 1.006 -1.006 1.006 H 61.44 v 5.023 h 23.501 l -5.024 -6.809 L 84.941 12.862 z" style="stroke: none; stroke-width: 1; stroke-dasharray: none; stroke-linecap: butt; stroke-linejoin: miter; stroke-miterlimit: 10; fill: rgb(0,0,0); fill-rule: nonzero; opacity: 1;" transform=" matrix(1 0 0 1 0 0) " stroke-linecap="round" />
	<path d="M 17.689 41.701 c -3.51 0.794 -6.132 3.932 -6.132 7.683 v 6.669 c 0 1.63 -1.322 2.952 -2.952 2.952 h 0 c -1.415 0 -2.631 -1.004 -2.899 -2.394 L 5.059 45.038 c 0 -4.947 6.389 -12.502 12.616 -12.502 h 15.078 c 1.455 0 2.886 0.372 4.156 1.08 l 15.809 8.812 c 1.53 0.824 2.19 2.67 1.531 4.278 l 0 0 c -0.72 1.755 -2.739 2.58 -4.482 1.83 l -14.563 -6.834 l -2.322 24.182 v 20.416 c 0 1.766 -1.432 3.198 -3.198 3.198 h -6.475 c -1.766 0 -3.198 -1.432 -3.198 -3.198 V 65.884 L 17.689 41.701" style="stroke: none; stroke-width: 1; stroke-dasharray: none; stroke-linecap: butt; stroke-linejoin: miter; stroke-miterlimit: 10; fill: rgb(0,0,0); fill-rule: nonzero; opacity: 1;" transform=" matrix(1 0 0 1 0 0) " stroke-linecap="round" />
</g>
</svg>