<svg width="450" height="330" viewBox="0 0 450 330" fill="none" xmlns="http://www.w3.org/2000/svg">
<g clip-path="url(#clip0_117_3729)">
<path d="M161.868 127.346V233.513C161.868 240.501 156.156 246.212 149.169 246.212H72.1826V223.448H108.526H110.145C130.692 223.448 134.985 222.326 143.175 198.822C143.263 198.567 143.357 198.306 143.444 198.043C143.834 196.921 144.223 195.752 144.633 194.529C145.299 192.534 145.634 191.438 146.091 189.894C151.44 171.792 152.589 153.859 152.589 130.369V127.346H161.868Z" fill="#1D1E1C"/>
<path d="M152.589 127.346V130.369C152.589 153.859 151.44 171.792 146.091 189.894C145.634 191.438 145.299 192.534 144.633 194.529C144.223 195.752 143.834 196.921 143.444 198.043C143.357 198.312 143.269 198.567 143.175 198.822C139.305 209.62 130.711 210.124 123.079 208.27C122.017 214.149 118.093 223.448 108.526 223.448H72.1825H42.0005C60.142 191.083 63.0577 167.767 63.0577 130.369V126.063C63.0577 121.628 66.6862 118 71.1206 118H137.155H152.589V126.063V127.346Z" fill="#1D1E1C"/>
<path d="M143.175 198.823C134.985 222.326 130.691 223.448 110.144 223.448H108.525C118.093 223.448 122.017 214.149 123.079 208.27C130.711 210.124 139.305 209.62 143.175 198.823Z" fill="#1D1E1C"/>
<path d="M143.443 198.043C143.833 196.921 144.223 195.752 144.633 194.529C145.298 192.534 145.634 191.438 146.091 189.894C151.439 171.792 152.588 153.859 152.588 130.369V127.346V126.063V118H137.155H71.1201C66.6857 118 63.0572 121.628 63.0572 126.063V130.369C63.0572 167.767 60.1415 191.083 42 223.448H72.1821H108.525H110.144C130.691 223.448 134.984 222.326 143.175 198.822C143.262 198.567 143.356 198.306 143.443 198.043Z" stroke="#FFF8F1" stroke-miterlimit="10" stroke-linecap="round" stroke-linejoin="round"/>
<path d="M74.46 140.28C75.9984 140.28 77.6048 139.481 78.6795 137.599C79.3511 136.43 80.7489 133.629 81.4948 132.405C82.3814 130.947 83.9341 130.202 85.4117 130.202C86.8965 130.202 88.4491 130.947 89.3293 132.405C90.0752 133.629 91.4794 136.43 92.1447 137.599C93.2264 139.481 94.8321 140.28 96.3706 140.28C97.9091 140.28 99.5154 139.481 100.59 137.599C101.255 136.43 102.66 133.629 103.405 132.405C104.292 130.947 105.845 130.202 107.322 130.202C108.808 130.202 110.353 130.947 111.24 132.405C111.986 133.629 113.39 136.43 114.055 137.599C115.13 139.481 116.743 140.28 118.275 140.28C119.813 140.28 121.426 139.481 122.501 137.599C123.166 136.43 124.57 133.629 125.316 132.405C126.203 130.947 127.748 130.202 129.233 130.202C130.711 130.202 132.263 130.947 133.151 132.405C133.896 133.629 135.301 136.43 135.966 137.599C137.041 139.481 138.646 140.28 140.185 140.28" stroke="#FFF8F1" stroke-linecap="round" stroke-linejoin="round"/>
<path d="M71.8457 160.545C73.3842 160.545 74.9905 159.745 76.0723 157.864C76.7369 156.695 78.1417 153.893 78.8869 152.67C79.7672 151.212 81.3198 150.466 82.8045 150.466C84.2822 150.466 85.8348 151.212 86.7214 152.67C87.4674 153.893 88.8651 156.695 89.5368 157.864C90.6122 159.745 92.2178 160.545 93.7563 160.545C95.2948 160.545 96.9011 159.745 97.9829 157.864C98.6475 156.695 100.052 153.893 100.791 152.67C101.678 151.212 103.23 150.466 104.708 150.466C106.194 150.466 107.745 151.212 108.632 152.67C109.372 153.893 110.776 156.695 111.441 157.864C112.523 159.745 114.128 160.545 115.667 160.545C117.205 160.545 118.812 159.745 119.886 157.864C120.558 156.695 121.956 153.893 122.702 152.67C123.588 151.212 125.141 150.466 126.619 150.466C128.104 150.466 129.656 151.212 130.536 152.67C131.282 153.893 132.686 156.695 133.352 157.864C134.433 159.745 136.039 160.545 137.578 160.545" stroke="#FFF8F1" stroke-linecap="round" stroke-linejoin="round"/>
<path d="M68.9507 181.904C70.4892 181.904 72.0955 181.105 73.1773 179.223C73.8419 178.061 75.2467 175.253 75.9919 174.03C76.8722 172.578 78.4248 171.826 79.9095 171.826C81.3872 171.826 82.9398 172.578 83.8264 174.03C84.5723 175.253 85.9701 178.061 86.6418 179.223C87.7172 181.105 89.3228 181.904 90.8613 181.904C92.3998 181.904 94.0061 181.105 95.0808 179.223C95.7525 178.061 97.1573 175.253 97.8962 174.03C98.7828 172.578 100.335 171.826 101.813 171.826C103.299 171.826 104.85 172.578 105.731 174.03C106.477 175.253 107.881 178.061 108.546 179.223C109.628 181.105 111.233 181.904 112.772 181.904C114.31 181.904 115.917 181.105 116.991 179.223C117.663 178.061 119.061 175.253 119.807 174.03C120.693 172.578 122.246 171.826 123.724 171.826C125.209 171.826 126.761 172.578 127.641 174.03C128.387 175.253 129.791 178.061 130.457 179.223C131.531 181.105 133.144 181.904 134.683 181.904" stroke="#FFF8F1" stroke-linecap="round" stroke-linejoin="round"/>
<path d="M72.1821 223.448V246.212H149.168C156.156 246.212 161.867 240.501 161.867 233.513V127.346H152.588" stroke="#FFF8F1" stroke-linecap="round" stroke-linejoin="round"/>
<path d="M108.525 223.448C118.094 223.448 122.017 214.149 123.079 208.27C130.712 210.124 139.305 209.62 143.175 198.823C143.269 198.568 143.357 198.312 143.444 198.043" stroke="#FFF8F1" stroke-linecap="round" stroke-linejoin="round"/>
<path d="M374.402 90.7944C375.843 91.7895 376.185 93.7798 375.19 95.2206L369.605 103.241C368.595 104.682 366.604 105.038 365.164 104.028L362.951 102.499L358.495 108.9C353.875 104.92 348.9 101.31 343.642 98.1466L347.919 92.0123L345.706 90.4676C344.265 89.4724 343.909 87.4673 344.919 86.0414L350.504 78.0207C351.514 76.5799 353.504 76.2235 354.945 77.2186L364.674 84.0065L374.402 90.7944Z" fill="#1D1E1C"/>
<path d="M379.72 189.998C379.72 139.557 338.829 98.6665 288.388 98.6665C237.947 98.6665 197.057 139.557 197.057 189.998C197.057 240.424 237.947 281.315 288.388 281.315C338.829 281.315 379.72 240.424 379.72 189.998ZM297.285 83.2342C298.667 83.3381 300.033 83.4718 301.385 83.65C316.698 85.4918 331.017 90.5567 343.642 98.1467C348.9 101.31 353.876 104.92 358.495 108.9C381.339 128.595 395.791 157.737 395.791 190.266C395.791 249.574 347.697 297.653 288.388 297.653C229.08 297.653 181 249.574 181 190.266C181 157.901 195.304 128.878 217.955 109.183C222.559 105.187 227.52 101.563 232.763 98.3843C245.374 90.7201 259.677 85.5958 274.976 83.6946C276.298 83.5312 277.62 83.3827 278.957 83.2787C282.061 82.9965 285.21 82.8628 288.388 82.8628C291.389 82.8628 294.359 82.9817 297.285 83.2342" fill="#1D1E1C"/>
<path d="M288.388 98.6665C338.829 98.6665 379.719 139.557 379.719 189.998C379.719 240.424 338.829 281.315 288.388 281.315C237.947 281.315 197.056 240.424 197.056 189.998C197.056 139.557 237.947 98.6665 288.388 98.6665ZM288.12 196.236C291.522 196.236 294.27 193.489 294.27 190.087C294.27 186.686 291.522 183.938 288.12 183.938C284.719 183.938 281.971 186.686 281.971 190.087C281.971 193.489 284.719 196.236 288.12 196.236" fill="#1D1E1C"/>
<path d="M319.416 55.2955C319.416 67.8315 312.034 78.6445 301.384 83.6352V83.65C300.033 83.4718 298.666 83.3381 297.285 83.2341V76.5651C305.603 73.0746 311.44 64.8609 311.44 55.2955C311.44 42.5664 301.117 32.2435 288.388 32.2435C275.659 32.2435 265.336 42.5664 265.336 55.2955C265.336 64.6678 270.936 72.733 278.956 76.3275V83.2787C277.62 83.3827 276.298 83.5312 274.976 83.6946C264.252 78.7337 256.825 67.8761 256.825 55.2955C256.825 38.0065 270.847 24 288.121 24C305.41 24 319.416 38.0065 319.416 55.2955Z" fill="#1D1E1C"/>
<path d="M303.167 50.4682V60.2415C303.167 61.9942 301.741 63.4201 299.989 63.4201H297.285V76.5651V83.2341C294.359 82.9816 291.389 82.8628 288.388 82.8628C285.21 82.8628 282.061 82.9965 278.957 83.2787V76.3274V63.4201H276.268C274.515 63.4201 273.075 61.9942 273.075 60.2415V50.4682C273.075 48.7155 274.515 47.2748 276.268 47.2748H288.121H299.989C301.741 47.2748 303.167 48.7155 303.167 50.4682Z" fill="#1D1E1C"/>
<path d="M288.121 183.938C291.522 183.938 294.27 186.686 294.27 190.087C294.27 193.489 291.522 196.236 288.121 196.236C284.72 196.236 281.972 193.489 281.972 190.087C281.972 186.686 284.72 183.938 288.121 183.938Z" fill="#1D1E1C"/>
<path d="M228.322 92.0123L232.763 98.3843C227.52 101.563 222.559 105.187 217.955 109.183L213.291 102.499L211.078 104.028C209.637 105.038 207.647 104.682 206.651 103.241L201.052 95.2206C200.057 93.7799 200.413 91.7895 201.839 90.7944L211.568 84.0065L221.297 77.2187C222.737 76.2235 224.742 76.58 225.738 78.0207L231.322 86.0414C232.332 87.4673 231.976 89.4725 230.535 90.4676L228.322 92.0123Z" fill="#1D1E1C"/>
<path d="M358.494 108.9C381.338 128.595 395.791 157.737 395.791 190.265C395.791 249.574 347.696 297.653 288.388 297.653C229.079 297.653 181 249.574 181 190.265C181 157.901 195.304 128.878 217.954 109.182C222.559 105.187 227.52 101.563 232.763 98.3843C245.373 90.7201 259.677 85.5958 274.975 83.6946C276.297 83.5312 277.619 83.3827 278.956 83.2787C282.06 82.9965 285.209 82.8628 288.388 82.8628C291.388 82.8628 294.359 82.9816 297.285 83.2341C298.666 83.3381 300.033 83.4718 301.384 83.65C316.698 85.4918 331.016 90.5567 343.641 98.1466C348.899 101.31 353.875 104.92 358.494 108.9Z" stroke="#FFF8F1" stroke-miterlimit="10" stroke-linecap="round" stroke-linejoin="round"/>
<path d="M288.121 120.248V120.263" stroke="#FFF8F1" stroke-miterlimit="10" stroke-linecap="round" stroke-linejoin="round"/>
<path d="M217.85 190.087H205.863" stroke="#FFF8F1" stroke-miterlimit="10" stroke-linecap="round" stroke-linejoin="round"/>
<path d="M288.12 183.938C291.522 183.938 294.27 186.686 294.27 190.087C294.27 193.489 291.522 196.236 288.12 196.236C284.719 196.236 281.971 193.489 281.971 190.087C281.971 186.686 284.719 183.938 288.12 183.938Z" stroke="#FFF8F1" stroke-miterlimit="10" stroke-linecap="round" stroke-linejoin="round"/>
<path d="M227.757 155.376L217.375 149.39" stroke="#FFF8F1" stroke-miterlimit="10" stroke-linecap="round" stroke-linejoin="round"/>
<path d="M253.602 129.992L247.601 119.609" stroke="#FFF8F1" stroke-miterlimit="10" stroke-linecap="round" stroke-linejoin="round"/>
<path d="M288.121 120.248V108.276V108.262" stroke="#FFF8F1" stroke-miterlimit="10" stroke-linecap="round" stroke-linejoin="round"/>
<path d="M358.39 189.998H370.377" stroke="#FFF8F1" stroke-miterlimit="10" stroke-linecap="round" stroke-linejoin="round"/>
<path d="M348.483 155.286L358.866 149.286" stroke="#FFF8F1" stroke-miterlimit="10" stroke-linecap="round" stroke-linejoin="round"/>
<path d="M322.639 129.888L328.639 119.505" stroke="#FFF8F1" stroke-miterlimit="10" stroke-linecap="round" stroke-linejoin="round"/>
<path d="M348.469 224.695L358.851 230.696" stroke="#FFF8F1" stroke-miterlimit="10" stroke-linecap="round" stroke-linejoin="round"/>
<path d="M322.624 250.094L328.625 260.476" stroke="#FFF8F1" stroke-miterlimit="10" stroke-linecap="round" stroke-linejoin="round"/>
<path d="M288.105 259.823V271.824" stroke="#FFF8F1" stroke-miterlimit="10" stroke-linecap="round" stroke-linejoin="round"/>
<path d="M227.743 224.799L217.36 230.785" stroke="#FFF8F1" stroke-miterlimit="10" stroke-linecap="round" stroke-linejoin="round"/>
<path d="M253.587 250.183L247.586 260.565" stroke="#FFF8F1" stroke-miterlimit="10" stroke-linecap="round" stroke-linejoin="round"/>
<path d="M288.121 196.236V206.975" stroke="#FFF8F1" stroke-miterlimit="10" stroke-linecap="round" stroke-linejoin="round"/>
<path d="M288.121 129.992V183.938" stroke="#FFF8F1" stroke-miterlimit="10" stroke-linecap="round" stroke-linejoin="round"/>
<path d="M379.719 189.998C379.719 240.424 338.829 281.315 288.388 281.315C237.947 281.315 197.056 240.424 197.056 189.998C197.056 139.557 237.947 98.6665 288.388 98.6665C338.829 98.6665 379.719 139.557 379.719 189.998Z" stroke="#FFF8F1" stroke-miterlimit="10" stroke-linecap="round" stroke-linejoin="round"/>
<path d="M274.975 83.6946C264.251 78.7336 256.825 67.876 256.825 55.2955C256.825 38.0065 270.846 24 288.12 24C305.409 24 319.416 38.0065 319.416 55.2955C319.416 67.8315 312.034 78.6445 301.384 83.6352" stroke="#FFF8F1" stroke-miterlimit="10" stroke-linecap="round" stroke-linejoin="round"/>
<path d="M278.956 76.3275C270.935 72.733 265.335 64.6678 265.335 55.2955C265.335 42.5664 275.658 32.2435 288.387 32.2435C301.117 32.2435 311.439 42.5664 311.439 55.2955C311.439 64.8609 305.602 73.0746 297.284 76.5651" stroke="#FFF8F1" stroke-miterlimit="10" stroke-linecap="round" stroke-linejoin="round"/>
<path d="M297.285 83.2787V83.2341V76.5651V63.4201H299.988C301.741 63.4201 303.167 61.9942 303.167 60.2415V50.4682C303.167 48.7155 301.741 47.2748 299.988 47.2748H288.12H276.268C274.515 47.2748 273.074 48.7155 273.074 50.4682V60.2415C273.074 61.9942 274.515 63.4201 276.268 63.4201H278.956V76.3274V83.2787" stroke="#FFF8F1" stroke-miterlimit="10" stroke-linecap="round" stroke-linejoin="round"/>
<path d="M232.763 98.3843L228.322 92.0123L230.535 90.4676C231.975 89.4724 232.332 87.4673 231.322 86.0414L225.737 78.0207C224.742 76.5799 222.737 76.2235 221.296 77.2186L211.567 84.0065L201.839 90.7944C200.413 91.7895 200.056 93.7798 201.051 95.2206L206.651 103.241C207.646 104.682 209.636 105.038 211.077 104.028L213.29 102.499L217.954 109.182" stroke="#FFF8F1" stroke-miterlimit="10" stroke-linecap="round" stroke-linejoin="round"/>
<path d="M343.641 98.1466L347.919 92.0123L345.706 90.4676C344.265 89.4724 343.908 87.4673 344.918 86.0414L350.503 78.0207C351.513 76.5799 353.504 76.2235 354.944 77.2186L364.673 84.0065L374.402 90.7944C375.843 91.7895 376.184 93.7798 375.189 95.2206L369.604 103.241C368.594 104.682 366.604 105.038 365.163 104.028L362.95 102.499L358.494 108.9" stroke="#FFF8F1" stroke-miterlimit="10" stroke-linecap="round" stroke-linejoin="round"/>
</g>
<defs>
<clipPath id="clip0_117_3729">
<rect width="450" height="330" fill="white"/>
</clipPath>
</defs>
</svg>
