<svg xmlns="http://www.w3.org/2000/svg" xmlns:xlink="http://www.w3.org/1999/xlink" version="1.1" width="256" height="256" viewBox="0 0 256 256" xml:space="preserve">

<defs>
</defs>
<g style="stroke: none; stroke-width: 0; stroke-dasharray: none; stroke-linecap: butt; stroke-linejoin: miter; stroke-miterlimit: 10; fill: none; fill-rule: nonzero; opacity: 1;" transform="translate(1.4065934065934016 1.4065934065934016) scale(2.81 2.81)" >
	<path d="M 86.238 33.882 h -2.19 c -1.045 0 -1.964 -0.629 -2.287 -1.565 c -0.512 -1.479 -1.119 -2.943 -1.808 -4.35 c -0.432 -0.882 -0.231 -1.965 0.498 -2.694 l 1.57 -1.571 c 1.466 -1.466 1.467 -3.852 0 -5.319 L 71.618 7.978 c -1.422 -1.421 -3.899 -1.42 -5.319 0 l -1.572 1.571 c -0.728 0.729 -1.811 0.929 -2.693 0.498 c -1.411 -0.689 -2.874 -1.297 -4.35 -1.808 c -0.937 -0.323 -1.565 -1.242 -1.565 -2.287 V 3.761 C 56.118 1.688 54.431 0 52.356 0 H 37.644 c -2.074 0 -3.762 1.688 -3.762 3.762 v 2.19 c 0 1.045 -0.629 1.964 -1.564 2.287 c -1.476 0.51 -2.939 1.118 -4.351 1.808 c -0.883 0.432 -1.965 0.23 -2.694 -0.498 l -1.57 -1.57 c -1.467 -1.467 -3.853 -1.467 -5.319 0 L 7.979 18.382 c -0.71 0.71 -1.102 1.655 -1.102 2.66 s 0.392 1.95 1.102 2.659 l 1.571 1.571 c 0.729 0.729 0.929 1.812 0.498 2.694 c -0.689 1.411 -1.297 2.874 -1.808 4.35 c -0.323 0.936 -1.242 1.565 -2.287 1.565 H 3.761 C 1.688 33.882 0 35.569 0 37.643 v 14.713 c 0 2.074 1.688 3.762 3.761 3.762 h 2.191 c 1.045 0 1.964 0.629 2.288 1.565 c 0.51 1.476 1.118 2.938 1.807 4.35 c 0.432 0.883 0.231 1.966 -0.498 2.695 l -1.57 1.569 c -0.711 0.711 -1.103 1.655 -1.103 2.66 s 0.392 1.949 1.102 2.659 l 10.404 10.405 c 1.466 1.465 3.853 1.467 5.319 -0.001 l 1.57 -1.57 c 0.729 -0.729 1.812 -0.93 2.694 -0.498 c 1.408 0.688 2.872 1.297 4.351 1.808 c 0.936 0.323 1.565 1.242 1.565 2.287 v 2.19 c 0 2.074 1.688 3.762 3.762 3.762 h 14.713 c 2.074 0 3.762 -1.688 3.762 -3.762 v -2.19 c 0 -1.045 0.629 -1.964 1.565 -2.287 c 1.479 -0.512 2.942 -1.119 4.351 -1.808 c 0.88 -0.433 1.964 -0.23 2.694 0.498 l 1.57 1.57 c 1.464 1.466 3.852 1.467 5.319 0 l 10.402 -10.403 c 0.712 -0.71 1.104 -1.655 1.104 -2.66 s -0.392 -1.95 -1.102 -2.659 l -1.571 -1.572 c -0.729 -0.729 -0.93 -1.811 -0.498 -2.692 c 0.688 -1.408 1.296 -2.872 1.808 -4.351 c 0.323 -0.937 1.242 -1.565 2.287 -1.565 h 2.19 c 2.074 0 3.762 -1.688 3.762 -3.762 V 37.644 C 90 35.569 88.313 33.882 86.238 33.882 z M 73.241 47.294 C 72.16 61.005 61.006 72.159 47.294 73.241 c -0.755 0.06 -1.509 0.089 -2.259 0.089 c -7.518 0 -14.729 -2.958 -20.068 -8.297 c -5.872 -5.872 -8.863 -14.01 -8.208 -22.327 C 17.84 28.995 28.995 17.84 42.706 16.759 c 8.32 -0.654 16.455 2.336 22.327 8.208 S 73.896 38.976 73.241 47.294 z" style="stroke: none; stroke-width: 1; stroke-dasharray: none; stroke-linecap: butt; stroke-linejoin: miter; stroke-miterlimit: 10; fill: rgb(0,0,0); fill-rule: nonzero; opacity: 1;" transform=" matrix(1 0 0 1 0 0) " stroke-linecap="round" />
	<path d="M 49.179 40.822 c -0.41 -0.41 -0.877 -0.747 -1.377 -1.017 V 29.387 c 0 -1.657 -1.343 -3 -3 -3 c -1.657 0 -3 1.343 -3 3 v 10.672 c -1.498 0.978 -2.545 2.603 -2.692 4.467 c -0.036 0.45 -0.017 0.898 0.047 1.336 l -11.233 9.068 c -1.289 1.04 -1.491 2.929 -0.45 4.219 c 0.593 0.734 1.46 1.115 2.336 1.115 c 0.662 0 1.328 -0.218 1.882 -0.666 l 11.235 -9.069 c 0.659 0.247 1.36 0.382 2.076 0.382 c 0.156 0 0.313 -0.007 0.471 -0.019 c 0 0 0 0 0 0 c 2.862 -0.227 5.19 -2.555 5.416 -5.416 C 51.027 43.743 50.403 42.047 49.179 40.822 z" style="stroke: none; stroke-width: 1; stroke-dasharray: none; stroke-linecap: butt; stroke-linejoin: miter; stroke-miterlimit: 10; fill: rgb(0,0,0); fill-rule: nonzero; opacity: 1;" transform=" matrix(1 0 0 1 0 0) " stroke-linecap="round" />
</g>
</svg>